<svg id="artwork" xmlns="http://www.w3.org/2000/svg" viewBox="0 0 164.93 88.94"><defs><style>.cls-1{fill:#094c6d;}</style></defs><title>C3IoT_Logo_DBlue</title><path class="cls-1" d="M273.6,261.78a1.57,1.57,0,0,1,1.93,1.11l-23,10.45a5.21,5.21,0,1,0-1.81,7.25l19.11,9.25h0c0,0.07,0,.15,0,0.22a6,6,0,1,0,.74-2.88h0l-21.65-10.26a2,2,0,0,1,1.35-1.49,3.2,3.2,0,0,1,1.91.47l1.12,0.54h0c0-.12,0-0.24,0-0.37a5.27,5.27,0,0,0-.14-1.24h0L273,265.4a4.13,4.13,0,1,0-1.32-3s0,0.07,0,.11h0Z" transform="translate(-218.15 -249)"/><path class="cls-1" d="M263.93,319.84l-6,0,0,0.72A18.22,18.22,0,1,0,291.56,310a18.42,18.42,0,0,0-5.94-5.83l-0.31-.19,0.3-.21a16.68,16.68,0,0,0-18.22-27.94l-0.08,0V283l0.2-.2c0.22-.24.45-0.47,0.69-0.69a11.12,11.12,0,0,1,3.19-2,11.45,11.45,0,0,1,8.37-.2,10.64,10.64,0,0,1,4,2.53l0.43,0.45a10.59,10.59,0,0,1,2.76,7.11,10.42,10.42,0,0,1-1.2,4.88,11,11,0,0,1-3.61,4,11.31,11.31,0,0,1-5.25,1.86,11.65,11.65,0,0,1-1.58,0v6.78h0.85a12.21,12.21,0,0,1,3.87.63h0l0.06,0h0a12.25,12.25,0,0,1,6.58,5.45l0,0h0a12.25,12.25,0,0,1-16.44,16.9l0-.05A12.19,12.19,0,0,1,263.93,319.84Z" transform="translate(-218.15 -249)"/><path class="cls-1" d="M231.37,291.35A20.61,20.61,0,0,1,228,265.7l0.08-.13,0.06-.09,0.05-.09a20.68,20.68,0,0,1,17.53-9.7,20.54,20.54,0,0,1,11.62,3.57v-7.62l-0.5-.22a27.4,27.4,0,1,0,0,49.93l0.5-.22v-7.6A20.7,20.7,0,0,1,231.37,291.35Z" transform="translate(-218.15 -249)"/><path class="cls-1" d="M339.33,303.8a18.32,18.32,0,1,1,18.32-18.32A18.34,18.34,0,0,1,339.33,303.8Zm0-30.64a12.32,12.32,0,1,0,12.32,12.32A12.33,12.33,0,0,0,339.33,273.16Z" transform="translate(-218.15 -249)"/><polygon class="cls-1" points="164.93 9.25 136.88 9.25 136.88 15.25 147.93 15.25 147.93 54.8 153.93 54.8 153.93 15.25 164.93 15.25 164.93 9.25"/><rect class="cls-1" x="90.35" y="9.25" width="6" height="45.55"/></svg>