<?xml version="1.0" encoding="utf-8"?>
<!-- Generator: Adobe Illustrator 22.0.1, SVG Export Plug-In . SVG Version: 6.00 Build 0)  -->
<svg version="1.1" id="Layer_1" xmlns="http://www.w3.org/2000/svg" xmlns:xlink="http://www.w3.org/1999/xlink" x="0px" y="0px"
	 viewBox="0 0 66.7 67.3" style="enable-background:new 0 0 66.7 67.3;" xml:space="preserve">
<style type="text/css">
	.st0{fill:none;stroke:#F4902B;stroke-width:2;stroke-linecap:round;stroke-linejoin:round;}
	.st1{fill:none;stroke:#F4902B;stroke-width:3.2;stroke-linecap:round;stroke-linejoin:round;stroke-miterlimit:10;}
	.st2{fill:#F4902B;}
</style>
<g>
	<g>
		<polyline class="st0" points="17.5,35.6 17.5,29.1 23.1,25.8 		"/>
		<polyline class="st0" points="27.7,23.2 33.3,19.9 38.9,23.2 		"/>
		<polyline class="st0" points="43.5,25.8 49.1,29.1 49.1,35.6 		"/>
		<polyline class="st0" points="49.1,40.8 49.1,47.3 43.5,50.6 		"/>
		<polyline class="st0" points="38.9,53.2 33.3,56.5 27.7,53.2 		"/>
		<polyline class="st0" points="23.1,50.6 17.5,47.3 17.5,40.8 		"/>
	</g>
</g>
<polygon class="st1" points="33.3,38.2 49.1,29 65,38.2 65,56.5 49.1,65.6 33.3,56.5 "/>
<polygon class="st1" points="17.5,10.8 33.3,1.6 49.1,10.8 49.1,29.1 33.3,38.2 17.5,29.1 "/>
<polygon class="st1" points="1.6,38.2 17.5,29 33.3,38.2 33.3,56.5 17.5,65.6 1.6,56.5 "/>
<path class="st2" d="M21.2,47.3c0,2-1.7,3.7-3.7,3.7s-3.7-1.7-3.7-3.7c0-2,1.7-3.7,3.7-3.7S21.2,45.3,21.2,47.3z"/>
<path class="st2" d="M52.8,47.3c0,2-1.7,3.7-3.7,3.7c-2,0-3.7-1.7-3.7-3.7c0-2,1.7-3.7,3.7-3.7C51.2,43.6,52.8,45.3,52.8,47.3z"/>
<path class="st2" d="M37,19.9c0,2-1.7,3.7-3.7,3.7c-2,0-3.7-1.7-3.7-3.7s1.7-3.7,3.7-3.7C35.4,16.2,37,17.9,37,19.9z"/>
</svg>
