<?xml version="1.0" encoding="utf-8"?>
<!-- Generator: Adobe Illustrator 16.0.0, SVG Export Plug-In . SVG Version: 6.00 Build 0)  -->
<!DOCTYPE svg PUBLIC "-//W3C//DTD SVG 1.1//EN" "http://www.w3.org/Graphics/SVG/1.1/DTD/svg11.dtd">
<svg version="1.1" id="Layer_1" xmlns="http://www.w3.org/2000/svg" xmlns:xlink="http://www.w3.org/1999/xlink" x="0px" y="0px"
	 width="32px" height="32px" viewBox="0 0 32 32" enable-background="new 0 0 32 32" xml:space="preserve">
<g>
	<defs>
		<rect id="SVGID_1_" x="-178" y="-7226" width="1344" height="7417"/>
	</defs>
	<clipPath id="SVGID_2_">
		<use xlink:href="#SVGID_1_"  overflow="visible"/>
	</clipPath>
	<g clip-path="url(#SVGID_2_)">
		<defs>
			<path id="SVGID_3_" d="M30.233,0H1.766C0.791,0,0,0.791,0,1.766v28.468C0,31.209,0.791,32,1.766,32h15.326V19.608h-4.17v-4.83
				h4.17v-3.562c0-4.133,2.524-6.383,6.212-6.383c1.766,0,3.284,0.131,3.727,0.19v4.32l-2.558,0.001
				c-2.005,0-2.394,0.953-2.394,2.352v3.083h4.782l-0.622,4.829h-4.16V32h8.155C31.209,32,32,31.209,32,30.233V1.766
				C32,0.791,31.209,0,30.233,0z"/>
		</defs>
		<use xlink:href="#SVGID_3_"  overflow="visible" fill-rule="evenodd" clip-rule="evenodd" fill="#FFFFFF"/>
		<clipPath id="SVGID_4_">
			<use xlink:href="#SVGID_3_"  overflow="visible"/>
		</clipPath>
		<rect x="-5" y="-5" clip-path="url(#SVGID_4_)" fill="#FFFFFF" width="42" height="42"/>
	</g>
</g>
</svg>
